<svg viewBox="0 0 21 22" fill="none" xmlns="http://www.w3.org/2000/svg">
<path d="M20.4093 7.18324C20.4093 2.43714 17.2985 1.04554 17.2985 1.04554C14.2458 -0.355828 6.13833 -0.341179 3.1149 1.04554C3.1149 1.04554 0.00356911 2.43714 0.00356911 7.18324C0.00356911 12.8326 -0.318697 19.8493 5.16128 21.2994C7.13931 21.8219 8.83902 21.9342 10.2067 21.8561C12.6877 21.7194 14.0797 20.9723 14.0797 20.9723L13.9967 19.1705C13.9967 19.1705 12.2238 19.7272 10.2311 19.6637C8.25796 19.5953 6.17837 19.4489 5.85464 17.027C5.82463 16.802 5.80995 16.5752 5.8107 16.3483C9.99185 17.3688 13.5573 16.7926 14.5387 16.6754C17.279 16.3483 19.6657 14.6588 19.9699 13.1159C20.4484 10.6842 20.4093 7.18324 20.4093 7.18324ZM16.7414 13.2965H14.4645V7.72034C14.4645 5.29359 11.3395 5.20081 11.3395 8.05726V11.109H9.0773V8.05677C9.0773 5.20033 5.9523 5.2931 5.9523 7.71986V13.296H3.67056C3.67056 7.33411 3.41665 6.07435 4.56949 4.75111C5.83414 3.33997 8.46695 3.2472 9.63931 5.04896L10.2057 6.00111L10.7721 5.04896C11.9494 3.23743 14.5866 3.34974 15.8419 4.75111C16.9997 6.08411 16.7404 7.339 16.7404 13.296L16.7414 13.2965Z" fill="#4CC9F0"/>
</svg>
