<svg xmlns="http://www.w3.org/2000/svg" fill="none" viewBox="0 0 32 32"><path fill="#4CC9F0" d="M10 24.312c-.318 0-.625-.115-.864-.325l-8-7a1.313 1.313 0 0 1 0-1.975l8-7a1.313 1.313 0 1 1 1.73 1.976L3.992 16l6.871 6.012a1.313 1.313 0 0 1-.864 2.3Zm12 0a1.313 1.313 0 0 1-.865-2.3L28.007 16l-6.871-6.012a1.312 1.312 0 1 1 1.729-1.976l8 7a1.312 1.312 0 0 1 0 1.975l-8 7c-.24.21-.547.326-.865.325Zm-9 3a1.312 1.312 0 0 1-1.257-1.687l6-20a1.312 1.312 0 1 1 2.514.75l-6 20a1.313 1.313 0 0 1-1.257.937Z"/></svg>