<svg xmlns="http://www.w3.org/2000/svg" viewBox="0 0 32 32"><path fill-rule="evenodd" d="m16.858 12.995-.011-.003-4.403-1.255 3.257 3.257a1.137 1.137 0 0 1 1.508 1.077 1.138 1.138 0 1 1-2.215-.37l-3.252-3.251 1.202 4.192.01.036.008.038a3.175 3.175 0 0 0 4.104 2.37l.585-.194.435.436 1.231 1.23 1.269-1.268-1.245-1.244-.43-.431.184-.58a3.175 3.175 0 0 0-2.226-4.037l-.01-.003Zm4.435 5.588.707.707-.707.707-1.269 1.269-.707.707-.707-.707-1.23-1.231a4.175 4.175 0 0 1-5.396-3.117l-1.66-5.786L10 10l1.133.323 5.988 1.707a4.175 4.175 0 0 1 2.927 5.308l1.245 1.245Z" clip-rule="evenodd"/></svg>