<svg xmlns="http://www.w3.org/2000/svg" xml:space="preserve" x="0" y="0" style="enable-background:new 0 0 1920 1088" version="1.1" viewBox="0 0 1920 1088"><style>.st0{fill:none;stroke:#FFFFFF;stroke-miterlimit:10}</style><path d="M608 320h160v160H608z" class="st0"/><path d="M928 160v160c132.5 0 240 107.5 240 240s-107.5 240-240 240H768V640H608v320h320c220.9 0 400-179.1 400-400s-179.1-400-400-400z" class="st0"/><path d="M944 176.3c204.7 8.4 368 177 368 383.7 0 212.1-171.9 384-384 384H624V656" class="st0"/><path d="M944 192.3c195.8 8.4 352 169.8 352 367.7 0 203.2-164.8 368-368 368H640V656" class="st0"/><path d="M944 208.4c187 8.4 336 162.6 336 351.6 0 194.4-157.6 352-352 352H656V656" class="st0"/><path d="M944 224.4c178.1 8.4 320 155.4 320 335.6 0 185.6-150.4 336-336 336H672V656" class="st0"/><path d="M944 240.4c169.3 8.3 304 148.2 304 319.6 0 176.7-143.3 320-320 320H688V656" class="st0"/><path d="M944 256.4c160.5 8.3 288 141.1 288 303.6 0 167.9-136.1 304-304 304H704V656" class="st0"/><path d="M944 272.4c151.6 8.3 272 133.9 272 287.6 0 159.1-128.9 288-288 288H720V656" class="st0"/><path d="M944 288.5c142.8 8.3 256 126.7 256 271.5 0 150.2-121.8 272-272 272H736V656" class="st0"/><path d="M944 304.5c133.9 8.3 240 119.5 240 255.5 0 141.4-114.6 256-256 256H752V656" class="st0"/><path d="M768 480h160v160H768z" class="st0"/><path d="M784 624h128V496H784" class="st0"/><path d="M784 608h112v-96H784" class="st0"/><path d="M784 592h96v-64h-96" class="st0"/><path d="M784 576h80v-32h-80" class="st0"/><path d="M784 720h144c88.4 0 160-71.6 160-160s-71.6-160-160-160H784" class="st0"/><path d="M784 736h144c97.2 0 176-78.8 176-176s-78.8-176-176-176H784" class="st0"/><path d="M784 416h144c79.5 0 144 64.5 144 144s-64.5 144-144 144H784" class="st0"/><path d="M784 688h144c70.7 0 128-57.3 128-128s-57.3-128-128-128H784" class="st0"/><path d="M784 368h144c106 0 192 86 192 192s-86 192-192 192H784" class="st0"/><path d="M784 768h144c114.9 0 208-93.1 208-208s-93.1-208-208-208H784" class="st0"/><path d="M784 448h144c61.9 0 112 50.1 112 112s-50.1 112-112 112H784" class="st0"/><path d="M944 638.4c36.5-7.4 64-39.7 64-78.4s-27.5-71-64-78.4" class="st0"/><path d="M944 532.3c9.6 5.5 16 15.9 16 27.7 0 11.8-6.4 22.2-16 27.7" class="st0"/><path d="M944 638.4c36.5-7.4 64-39.7 64-78.4s-27.5-71-64-78.4" class="st0"/><path d="M944 605.3c18.6-6.6 32-24.4 32-45.3s-13.4-38.7-32-45.3" class="st0"/><path d="M944 622c27.6-7.1 48-32.2 48-62s-20.4-54.9-48-62" class="st0"/><path d="M784 656h144c53 0 96-43 96-96s-43-96-96-96H784" class="st0"/><path d="M784 336h144c123.7 0 224 100.3 224 224s-100.3 224-224 224H784" class="st0"/><path d="M928 144c229.8 0 416 186.2 416 416s-186.2 416-416 416H432V144h496z" class="st0"/><path d="M608 992h320c238.6 0 432-193.4 432-432s-193.4-432-432-432H416v864h192z" class="st0"/><path d="M928 112c247.4 0 448 200.6 448 448s-200.6 448-448 448H400V112h528z" class="st0"/><path d="M608 1024h320c256.3 0 464-207.7 464-464S1184.3 96 928 96H384v928h224z" class="st0"/><path d="M928 80c265.1 0 480 214.9 480 480s-214.9 480-480 480H368V80h560z" class="st0"/><path d="M608 1056h320c273.9 0 496-222.1 496-496S1201.9 64 928 64H352v992h256z" class="st0"/><path d="M928 48c282.8 0 512 229.2 512 512s-229.2 512-512 512H336V48h592z" class="st0"/><path d="M928 1088c291.6 0 528-236.4 528-528S1219.6 32 928 32H320v1056h608z" class="st0"/><path d="M304 1088V16h624c300.4 0 544 243.6 544 544 0 255.1-175.6 469.2-412.5 528" class="st0"/><path d="M1115 1088c217.3-77 373-284.3 373-528 0-309.3-250.7-560-560-560" class="st0"/><path d="M1158.6 1088c203.3-88.9 345.4-291.9 345.4-528 0-271.5-187.8-499.1-440.6-560" class="st0"/><path d="M1196 1088c192.3-97.8 324-297.5 324-528 0-259.6-167.1-480.1-399.5-560" class="st0"/><path d="M1229.7 1088c183-104.8 306.3-302 306.3-528 0-251.6-152.9-467.6-370.8-560" class="st0"/><path d="M1260.7 1088c175-110.5 291.3-305.7 291.3-528 0-245.7-142-458.2-348.4-560" class="st0"/><path d="M1289.8 1088c168-115.3 278.2-308.8 278.2-528 0-241-133.2-450.8-329.9-560" class="st0"/><path d="M1317.4 1088C1479.1 968.5 1584 776.5 1584 560c0-237.1-125.7-444.7-314.2-560" class="st0"/><path d="M1343.7 1088C1499.8 964.9 1600 774.2 1600 560c0-233.7-119.3-439.6-300.4-560" class="st0"/><path d="M1369.1 1088C1520 961.8 1616 772.1 1616 560c0-230.9-113.7-435.2-288.2-560" class="st0"/><path d="M1393.7 1088C1539.8 959 1632 770.3 1632 560c0-228.4-108.8-431.4-277.3-560" class="st0"/><path d="M1417.5 1088C1559.3 956.5 1648 768.6 1648 560c0-226.2-104.3-428-267.4-560" class="st0"/><path d="M1440.8 1088C1578.4 954.3 1664 767.1 1664 560c0-224.2-100.3-425-258.4-560" class="st0"/><path d="M1463.5 1088C1597.4 952.2 1680 765.8 1680 560c0-222.4-96.6-422.3-250.1-560" class="st0"/><path d="M1485.7 1088C1616.1 950.4 1696 764.5 1696 560c0-220.8-93.2-419.9-242.4-560" class="st0"/><path d="M1507.6 1088c127-139.3 204.4-324.6 204.4-528 0-219.4-90.1-417.7-235.3-560" class="st0"/><path d="M1529 1088c123.9-140.9 199-325.7 199-528 0-218-87.2-415.7-228.7-560" class="st0"/><path d="M1550.2 1088C1671.1 945.7 1744 761.4 1744 560c0-216.8-84.6-413.9-222.5-560" class="st0"/><path d="M1571 1088c118.1-143.6 189-327.5 189-528 0-215.7-82.1-412.2-216.7-560" class="st0"/><path d="M1591.6 1088C1707 943.1 1776 759.6 1776 560c0-214.6-79.7-410.6-211.2-560" class="st0"/><path d="M1611.9 1088C1724.8 942 1792 758.8 1792 560c0-213.6-77.5-409.2-206-560" class="st0"/><path d="M1632.1 1088C1742.5 940.9 1808 758.1 1808 560c0-212.7-75.5-407.8-201.1-560" class="st0"/><path d="M1652 1088c108.2-148.1 172-330.6 172-528 0-211.9-73.6-406.6-196.5-560" class="st0"/><path d="M1671.7 1088c106-149 168.3-331.2 168.3-528 0-211.1-71.7-405.4-192.1-560" class="st0"/><path d="M1691.3 1088C1795.1 938.1 1856 756.2 1856 560c0-210.4-70-404.4-187.9-560" class="st0"/><path d="M1710.6 1088C1812.5 937.3 1872 755.6 1872 560c0-209.7-68.3-403.3-184-560" class="st0"/><path d="M1729.9 1088c99.9-151.5 158.1-332.9 158.1-528 0-209-66.8-402.4-180.2-560" class="st0"/><path d="M1749 1088c98.1-152.2 155-333.5 155-528 0-208.4-65.3-401.5-176.5-560" class="st0"/><path d="M1768 1088c96.3-152.9 152-333.9 152-528 0-207.8-63.9-400.6-173.1-560" class="st0"/><path d="M1920 380.1c-25-138.6-78.3-267.4-153.7-380.1M1786.8 1088c64.6-104.9 110.5-222.5 133.2-348.1" class="st0"/><path d="M1920 305c-28.2-109.9-74.1-212.6-134.6-305M1805.6 1088c50.6-83.9 89.5-175.7 114.4-273M1920 246.8c-27.7-87.9-66.8-170.7-115.5-246.8M1824.2 1088c39.6-67.1 71.9-139.1 95.8-214.8M1920 197.1c-25.4-69.4-57.9-135.4-96.5-197.1M1842.7 1088c30.3-52.4 56.2-107.6 77.3-165.1M1920 152.9c-21.9-53.3-47.9-104.4-77.7-152.9M1861.2 1088c22-38.9 41.7-79.2 58.8-120.9M1920 112.5c-17.5-38.8-37.2-76.3-59-112.5M1879.5 1088c14.6-26.2 28.1-53 40.5-80.5M1920 74.9c-12.5-25.5-26-50.5-40.4-74.9M1897.8 1088c7.7-14.1 15.1-28.4 22.2-42.9M1920 39.6c-7-13.4-14.3-26.5-21.8-39.6M1916 1088c1.3-2.5 2.7-5 4-7.6M464 960V176h448" class="st0"/><path d="M752 624H592v336M912 304H592v192h160" class="st0"/><path d="M912 160H448v800" class="st0"/><path d="M752 512H576V288h336M576 960V608h176" class="st0"/><path d="M912 192H480v768" class="st0"/><path d="M496 960V208h416" class="st0"/><path d="M752 592H560v368M912 272H560v256h192" class="st0"/><path d="M512 960V224h400" class="st0"/><path d="M752 576H544v384M912 256H544v288h208" class="st0"/><path d="M912 240H528v720M752 560H528M272 0v1088M288 0v1088M256 0v1088M240 0v1088M224 0v1088M208 0v1088M192 0v1088M176 0v1088M160 0v1088M144 0v1088M128 0v1088M112 0v1088M96 0v1088M80 0v1088M64 0v1088M48 0v1088M32 0v1088M16 0v1088M784 320h128" class="st0"/><path d="M752 336H624v128h128" class="st0"/><path d="M752 368h-96v64h96M688 400h64" class="st0"/><path d="M752 416h-80v-32h80" class="st0"/><path d="M752 448H640v-96h112M848 560h-64" class="st0"/></svg>